HIERARCHY
ROOT hip
{
  OFFSET 0 0 0
  CHANNELS 6 Xposition Yposition Zposition Zrotation Yrotation Xrotation
  JOINT abdomen
  {
    OFFSET 0 20.6881 -0.73152
    CHANNELS 3 Zrotation Xrotation Yrotation
    JOINT chest
    {
      OFFSET 0 11.7043 -0.48768
      CHANNELS 3 Zrotation Xrotation Yrotation
      JOINT neck
      {
        OFFSET 0 22.1894 -2.19456
        CHANNELS 3 Zrotation Xrotation Yrotation
        JOINT head
        {
          OFFSET -0.24384 7.07133 1.2192
          CHANNELS 3 Zrotation Xrotation Yrotation
          JOINT leftEye
          {
            OFFSET 4.14528 8.04674 8.04672
            CHANNELS 3 Zrotation Xrotation Yrotation
            End Site
            {
              OFFSET 1 0 0
            }
          }
          JOINT rightEye
          {
            OFFSET -3.6576 8.04674 8.04672
            CHANNELS 3 Zrotation Xrotation Yrotation
            End Site
            {
              OFFSET 1 0 0
            }
          }
        }
      }
      JOINT rCollar
      {
        OFFSET -2.68224 19.2634 -4.8768
        CHANNELS 3 Zrotation Xrotation Yrotation
        JOINT rShldr
        {
          OFFSET -8.77824 -1.95073 1.46304
          CHANNELS 3 Zrotation Xrotation Yrotation
          JOINT rForeArm
          {
            OFFSET -28.1742 -1.7115 0.48768
            CHANNELS 3 Zrotation Xrotation Yrotation
            JOINT rHand
            {
              OFFSET -22.5879 0.773209 7.07136
              CHANNELS 3 Zrotation Xrotation Yrotation
              JOINT rThumb1
              {
                OFFSET -1.2192 -0.487915 3.41376
                CHANNELS 3 Zrotation Xrotation Yrotation
                JOINT rThumb2
                {
                  OFFSET -3.37035 -0.52449 3.41376
                  CHANNELS 3 Zrotation Xrotation Yrotation
                  End Site
                  {
                    OFFSET -1.78271 -1.18214 1.43049
                  }
                }
              }
              JOINT rIndex1
              {
                OFFSET -7.75947 0.938293 5.60832
                CHANNELS 3 Zrotation Xrotation Yrotation
                JOINT rIndex2
                {
                  OFFSET -2.54057 -0.884171 1.56538
                  CHANNELS 3 Zrotation Xrotation Yrotation
                  End Site
                  {
                    OFFSET -1.62519 -0.234802 1.16502
                  }
                }
              }
              JOINT rMid1
              {
                OFFSET -8.24714 1.18213 3.41376
                CHANNELS 3 Zrotation Xrotation Yrotation
                JOINT rMid2
                {
                  OFFSET -3.10165 -0.590103 1.0647
                  CHANNELS 3 Zrotation Xrotation Yrotation
                  End Site
                  {
                    OFFSET -2.48547 -0.328903 0.83742
                  }
                }
              }
              JOINT rRing1
              {
                OFFSET -8.82822 0.546677 1.51678
                CHANNELS 3 Zrotation Xrotation Yrotation
                JOINT rRing2
                {
                  OFFSET -2.60934 -0.819778 -0.0198488
                  CHANNELS 3 Zrotation Xrotation Yrotation
                  End Site
                  {
                    OFFSET -2.33842 -0.294052 0.168128
                  }
                }
              }
              JOINT rPinky1
              {
                OFFSET -8.27202 -0.0477905 -0.4584
                CHANNELS 3 Zrotation Xrotation Yrotation
                JOINT rPinky2
                {
                  OFFSET -1.82734 -0.647385 -0.700984
                  CHANNELS 3 Zrotation Xrotation Yrotation
                  End Site
                  {
                    OFFSET -1.69225 -0.51767 -0.607171
                  }
                }
              }
            }
          }
        }
      }
      JOINT lCollar
      {
        OFFSET 2.68224 19.2634 -4.8768
        CHANNELS 3 Zrotation Xrotation Yrotation
        JOINT lShldr
        {
          OFFSET 8.77824 -1.95073 1.46304
          CHANNELS 3 Zrotation Xrotation Yrotation
          JOINT lForeArm
          {
            OFFSET 28.1742 -1.7115 0.48768
            CHANNELS 3 Zrotation Xrotation Yrotation
            JOINT lHand
            {
              OFFSET 22.5879 0.773209 7.07136
              CHANNELS 3 Zrotation Xrotation Yrotation
              JOINT lThumb1
              {
                OFFSET 1.2192 -0.487915 3.41376
                CHANNELS 3 Zrotation Xrotation Yrotation
                JOINT lThumb2
                {
                  OFFSET 3.37035 -0.52449 3.41376
                  CHANNELS 3 Zrotation Xrotation Yrotation
                  End Site
                  {
                    OFFSET 1.78271 -1.18214 1.43049
                  }
                }
              }
              JOINT lIndex1
              {
                OFFSET 7.75947 0.938293 5.60832
                CHANNELS 3 Zrotation Xrotation Yrotation
                JOINT lIndex2
                {
                  OFFSET 2.54057 -0.884171 1.56538
                  CHANNELS 3 Zrotation Xrotation Yrotation
                  End Site
                  {
                    OFFSET 1.62519 -0.234802 1.16502
                  }
                }
              }
              JOINT lMid1
              {
                OFFSET 8.24714 1.18213 3.41376
                CHANNELS 3 Zrotation Xrotation Yrotation
                JOINT lMid2
                {
                  OFFSET 3.10165 -0.590103 1.0647
                  CHANNELS 3 Zrotation Xrotation Yrotation
                  End Site
                  {
                    OFFSET 2.48547 -0.328903 0.83742
                  }
                }
              }
              JOINT lRing1
              {
                OFFSET 8.82822 0.546677 1.51678
                CHANNELS 3 Zrotation Xrotation Yrotation
                JOINT lRing2
                {
                  OFFSET 2.60934 -0.819778 -0.0198488
                  CHANNELS 3 Zrotation Xrotation Yrotation
                  End Site
                  {
                    OFFSET 2.33842 -0.294052 0.168128
                  }
                }
              }
              JOINT lPinky1
              {
                OFFSET 8.27202 -0.0477905 -0.4584
                CHANNELS 3 Zrotation Xrotation Yrotation
                JOINT lPinky2
                {
                  OFFSET 1.82734 -0.647385 -0.700984
                  CHANNELS 3 Zrotation Xrotation Yrotation
                  End Site
                  {
                    OFFSET 1.69225 -0.51767 -0.607171
                  }
                }
              }
            }
          }
        }
      }
    }
  }
  JOINT rButtock
  {
    OFFSET -8.77824 4.35084 1.2192
    CHANNELS 3 Zrotation Xrotation Yrotation
    JOINT rThigh
    {
      OFFSET 0 -1.70687 -2.19456
      CHANNELS 3 Zrotation Xrotation Yrotation
      JOINT rShin
      {
        OFFSET 0 -36.8199 0.73152
        CHANNELS 3 Zrotation Xrotation Yrotation
        JOINT rFoot
        {
          OFFSET 0.73152 -45.1104 -5.12064
          CHANNELS 3 Zrotation Xrotation Yrotation
          End Site
          {
            OFFSET -1.1221 -3.69964 12.103
          }
        }
      }
    }
  }
  JOINT lButtock
  {
    OFFSET 8.77824 4.35084 1.2192
    CHANNELS 3 Zrotation Xrotation Yrotation
    JOINT lThigh
    {
      OFFSET 0 -1.70687 -2.19456
      CHANNELS 3 Zrotation Xrotation Yrotation
      JOINT lShin
      {
        OFFSET 0 -36.8199 0.73152
        CHANNELS 3 Zrotation Xrotation Yrotation
        JOINT lFoot
        {
          OFFSET -0.73152 -45.1104 -5.12064
          CHANNELS 3 Zrotation Xrotation Yrotation
          End Site
          {
            OFFSET 1.1221 -3.69964 12.103
          }
        }
      }
    }
  }
}
MOTION
Frames:	9
Frame Time:	0.00833333
51.6429 85.3166 -74.2767 0.0 0.0 0.0 1.08606 -0.0040899 0.0298994 0.299447 -0.00345824 0.0518745 5.73968e-15 0.0 -3.72721e-17 1.70582e-14 3.18055e-15 -1.02498e-16 -0.0 0.0 0.0 -0.0 0.0 0.0 3.03043e-15 3.33896e-17 1.98785e-16 6.23976e-14 6.08778e-16 3.97569e-16 1.03925e-12 -2.82274e-13 9.54166e-15 1.18227e-11 4.4088e-13 -9.85972e-14 2.7893e-11 3.45408e-13 -1.7175e-13 4.81631e-11 5.94764e-13 -2.95792e-13 2.79002e-11 3.45885e-13 -1.74931e-13 7.73091 5.47488 0.417314 2.7893e-11 3.45289e-13 -1.65389e-13 2.90554 0.965183 0.102902 2.79034e-11 3.45587e-13 -1.7175e-13 10.2786 0.731801 0.0259123 2.78887e-11 3.47078e-13 -1.62208e-13 2.22167 -0.733487 -0.20892 2.8339e-15 3.41661e-17 -1.98785e-16 5.96919e-14 5.77718e-16 -9.93923e-16 1.03005e-12 3.3197e-13 -1.90833e-14 1.1823e-11 -1.90982e-13 -4.13472e-14 2.78795e-11 3.05943e-13 -1.62208e-13 4.81544e-11 5.24792e-13 -2.8625e-13 2.78736e-11 3.07321e-13 -1.59028e-13 -7.73091 5.47488 -0.417314 2.78795e-11 3.06327e-13 -1.65389e-13 -2.90554 0.965183 -0.102902 2.78728e-11 3.06327e-13 -1.64594e-13 -10.2786 0.731801 -0.0259123 2.78807e-11 3.09309e-13 -1.68569e-13 -2.22167 -0.733487 0.20892 -2.03217e-16 0.0 -3.88251e-19 1.33862 -5.65667 -0.117788 0.000449253 4.68995 0.0313111 -0.524555 0.964913 0.0795391 2.03217e-16 0.0 3.88251e-19 0.313408 -1.92005 0.0118654 0.00934878 -2.07854 0.0772602 0.509933 3.99665 -0.13997
50.8225 84.6734 -74.7308 -2.1539 -4.8613 0.7337 1.50902 0.300484 0.385202 1.01796 -0.153113 0.17695 -3.11056 -0.803761 -1.2181 4.06973 -1.74087 -1.15999 -0.0 0.0 0.0 -0.0 0.0 0.0 -1.42829e-14 -6.91045e-15 -3.35558e-14 21.8393 5.67926 0.423953 -5.16524 -2.57068 7.81208 0.0154685 -2.76002 -0.386273 2.64605e-10 -3.4866e-10 -1.13422e-11 4.57467e-10 -6.02542e-10 -1.80742e-11 2.64613e-10 -3.48661e-10 -1.13447e-11 7.73091 5.47488 0.417314 2.64604e-10 -3.48659e-10 -1.13346e-11 2.90554 0.965183 0.102902 2.64612e-10 -3.48659e-10 -1.13383e-11 10.2786 0.731801 0.0259123 2.64599e-10 -3.48657e-10 -1.13278e-11 2.22167 -0.733487 -0.20892 -1.4427e-14 -6.90565e-15 -3.38943e-14 -22.8289 3.5543 -0.560732 3.86596 -1.69033 -6.1099 -0.0430606 4.61415 -0.64095 2.4661e-10 3.44907e-10 -1.89194e-11 4.25005e-10 5.94e-10 -3.61682e-11 2.46604e-10 3.44907e-10 -1.89151e-11 -7.73091 5.47488 -0.417314 2.4661e-10 3.44906e-10 -1.89208e-11 -2.90554 0.965183 -0.102902 2.46602e-10 3.44906e-10 -1.89213e-11 -10.2786 0.731801 -0.0259123 2.46613e-10 3.44909e-10 -1.89247e-11 -2.22167 -0.733487 0.20892 -2.03217e-16 0.0 -3.88251e-19 0.37796 -5.27419 -0.0867537 -0.000597505 7.1323 0.0717003 -0.555359 -1.12498 -1.7914 2.03217e-16 0.0 3.88251e-19 2.47491 -2.79567 -0.517072 0.00884761 3.11971 -0.0226316 0.635403 0.348448 1.90433
50.7732 84.6609 -74.7447 -2.0153 -4.7174 0.8068 1.92241 0.62065 0.765733 1.78132 -0.306781 0.310313 -6.43787 -1.6552 -2.50545 8.3006 -3.58028 -2.38589 -0.0 0.0 0.0 -0.0 0.0 0.0 -3.6498e-14 -1.46005e-14 -7.19725e-14 44.8414 11.6516 0.892889 -9.84016 -5.10309 16.0776 -0.00880854 -5.67054 -0.796654 5.58804e-10 -7.76974e-10 -2.48294e-11 9.66128e-10 -1.34274e-09 -3.9486e-11 5.58812e-10 -7.76977e-10 -2.48308e-11 7.73091 5.47488 0.417314 5.58802e-10 -7.76973e-10 -2.48203e-11 2.90554 0.965183 0.102902 5.58807e-10 -7.76973e-10 -2.48212e-11 10.2786 0.731801 0.0259123 5.58796e-10 -7.76971e-10 -2.48095e-11 2.22167 -0.733487 -0.20892 -3.65826e-14 -1.45912e-14 -7.22458e-14 -46.8839 7.26301 -1.16328 7.53398 -3.3926 -12.5418 0.0253581 9.52237 -1.33705 5.133e-10 7.6539e-10 -1.91354e-11 8.84819e-10 1.31846e-09 -4.069e-11 5.13294e-10 7.65389e-10 -1.91298e-11 -7.73091 5.47488 -0.417314 5.13299e-10 7.65388e-10 -1.9135e-11 -2.90554 0.965183 -0.102902 5.13291e-10 7.65387e-10 -1.91368e-11 -10.2786 0.731801 -0.0259123 5.13304e-10 7.6539e-10 -1.91396e-11 -2.22167 -0.733487 0.20892 -2.03217e-16 0.0 -3.88251e-19 -0.670155 -4.87595 -0.055106 -0.0055038 9.73658 0.115326 -0.737121 -3.34111 -3.76196 2.03217e-16 0.0 3.88251e-19 4.71111 -3.69471 -1.07379 0.0280934 8.58656 -0.129091 1.05149 -3.48941 4.08032
50.7074 84.6686 -74.6581 -1.9933 -4.6288 0.7086 2.34359 0.909486 1.09593 2.45695 -0.452413 0.427113 -9.4342 -2.40692 -3.65718 11.9971 -5.21402 -3.49284 -0.0 0.0 0.0 -0.0 0.0 0.0 -4.89095e-14 -2.07981e-14 -1.01065e-13 65.256 17.034 1.32369 -13.4443 -7.13982 23.6065 -0.0662312 -8.27856 -1.16966 7.38029e-10 -1.04667e-09 -3.36831e-11 1.27608e-09 -1.80882e-09 -5.3631e-11 7.38037e-10 -1.04667e-09 -3.36843e-11 7.73091 5.47488 0.417314 7.38026e-10 -1.04667e-09 -3.3673e-11 2.90554 0.965183 0.102902 7.38029e-10 -1.04667e-09 -3.36715e-11 10.2786 0.731801 0.0259123 7.3802e-10 -1.04667e-09 -3.3659e-11 2.22167 -0.733487 -0.20892 -4.89487e-14 -2.07853e-14 -1.01285e-13 -68.2749 10.6588 -1.70845 10.5336 -4.84076 -18.3896 0.188332 13.8354 -1.97391 6.84071e-10 1.03411e-09 -5.64337e-11 1.17871e-09 1.78095e-09 -1.07932e-10 6.84066e-10 1.03411e-09 -5.64273e-11 -7.73091 5.47488 -0.417314 6.8407e-10 1.03411e-09 -5.64317e-11 -2.90554 0.965183 -0.102902 6.84061e-10 1.0341e-09 -5.64347e-11 -10.2786 0.731801 -0.0259123 6.84076e-10 1.03411e-09 -5.6437e-11 -2.22167 -0.733487 0.20892 -2.03217e-16 0.0 -3.88251e-19 -1.5446 -4.50922 -0.0248075 -0.0132521 12.017 0.154408 -1.02712 -5.28164 -5.55588 2.03217e-16 0.0 3.88251e-19 6.74928 -4.54554 -1.57805 0.0631696 13.5161 -0.228542 1.6694 -6.90925 6.03614
50.5548 84.6809 -74.6124 -2.2239 -4.4926 0.6135 2.79235 1.12014 1.30016 2.91195 -0.577967 0.502494 -11.5303 -2.91354 -4.46709 14.5067 -6.34165 -4.29022 -0.0 0.0 0.0 -0.0 0.0 0.0 -3.68117e-14 -2.32648e-14 -1.06847e-13 79.3944 20.9451 1.60939 -15.7471 -8.45434 29.1405 -0.12758 -10.1318 -1.43911 6.29821e-10 -9.19817e-10 -3.09532e-11 1.08924e-09 -1.58959e-09 -4.96087e-11 6.29829e-10 -9.19822e-10 -3.09563e-11 7.73091 5.47488 0.417314 6.29818e-10 -9.19816e-10 -3.09436e-11 2.90554 0.965183 0.102902 6.2982e-10 -9.19816e-10 -3.09404e-11 10.2786 0.731801 0.0259123 6.29811e-10 -9.19814e-10 -3.09277e-11 2.22167 -0.733487 -0.20892 -3.68405e-14 -2.32508e-14 -1.07046e-13 -83.1534 13.2761 -2.08656 12.5728 -5.85849 -22.7242 0.353314 16.6675 -2.41158 6.15046e-10 9.2342e-10 -1.86438e-10 1.05778e-09 1.58852e-09 -3.31974e-10 6.15042e-10 9.23417e-10 -1.86431e-10 -7.73091 5.47488 -0.417314 6.15045e-10 9.23416e-10 -1.86435e-10 -2.90554 0.965183 -0.102902 6.15036e-10 9.23414e-10 -1.86439e-10 -10.2786 0.731801 -0.0259123 6.15052e-10 9.23417e-10 -1.86441e-10 -2.22167 -0.733487 0.20892 -2.03217e-16 0.0 -3.88251e-19 -1.98408 -4.22127 0.00219099 -0.0202963 13.4877 0.18046 -1.29829 -6.55572 -6.88453 2.03217e-16 0.0 3.88251e-19 8.32382 -5.27696 -1.94893 0.09943 17.1026 -0.304035 2.23737 -9.32552 7.3871
50.3581 84.6864 -74.6728 -2.7136 -4.2124 0.6504 3.33068 1.2295 1.317 3.05085 -0.680676 0.517364 -12.3275 -3.06583 -4.80098 15.3963 -6.78063 -4.65887 -0.0 0.0 0.0 -0.0 0.0 0.0 2.03919e-14 -2.0706e-14 -7.14514e-14 84.8463 22.8005 1.65924 -16.7748 -9.09363 31.7706 -0.158481 -10.9274 -1.55608 -2.09259e-11 -3.57179e-11 2.0287e-12 -3.53607e-11 -6.14124e-11 3.23557e-12 -2.09187e-11 -3.57207e-11 2.01926e-12 7.73091 5.47488 0.417314 -2.09289e-11 -3.57167e-11 2.03516e-12 2.90554 0.965183 0.102902 -2.09268e-11 -3.57168e-11 2.03883e-12 10.2786 0.731801 0.0259123 -2.09348e-11 -3.5715e-11 2.05059e-12 2.22167 -0.733487 -0.20892 2.03175e-14 -2.06946e-14 -7.16778e-14 -88.9999 14.8134 -2.19186 13.5634 -6.4088 -24.9029 0.409415 17.3748 -2.52522 9.14815e-11 8.30725e-11 -5.17895e-10 1.50118e-10 1.36199e-10 -8.9781e-10 9.14788e-11 8.30701e-11 -5.1789e-10 -7.73091 5.47488 -0.417314 9.14802e-11 8.30673e-11 -5.17891e-10 -2.90554 0.965183 -0.102902 9.14718e-11 8.30657e-11 -5.17896e-10 -10.2786 0.731801 -0.0259123 9.14893e-11 8.30685e-11 -5.17899e-10 -2.22167 -0.733487 0.20892 -2.03217e-16 0.0 -3.88251e-19 -1.77086 -4.01227 0.0201759 -0.0227111 13.7546 0.186131 -1.40567 -6.87578 -7.54548 2.03217e-16 0.0 3.88251e-19 9.30472 -5.87633 -2.14427 0.119615 18.8552 -0.341465 2.48823 -10.3834 7.84665
49.9851 84.6781 -74.9072 -3.8055 -4.0579 0.9594 3.9316 1.26613 1.20047 2.96405 -0.766819 0.48913 -12.1898 -2.96653 -4.79415 15.1461 -6.72878 -4.71812 -0.0 0.0 0.0 -0.0 0.0 0.0 1.093e-13 -1.45481e-14 -7.05064e-15 84.1161 23.1882 1.52879 -17.0306 -9.37021 32.3049 -0.158648 -10.9681 -1.56189 -1.05253e-09 1.37965e-09 5.59507e-11 -1.81825e-09 2.38508e-09 8.9839e-11 -1.05252e-09 1.37965e-09 5.5932e-11 7.73091 5.47488 0.417314 -1.05253e-09 1.37965e-09 5.59523e-11 2.90554 0.965183 0.102902 -1.05253e-09 1.37965e-09 5.59556e-11 10.2786 0.731801 0.0259123 -1.05253e-09 1.37965e-09 5.59656e-11 2.22167 -0.733487 -0.20892 1.0914e-13 -1.45419e-14 -7.3395e-15 -88.4145 15.5798 -2.09696 13.8828 -6.67407 -25.532 0.367749 16.568 -2.39983 -7.51096e-10 -1.26901e-09 -9.89833e-10 -1.30969e-09 -2.19971e-09 -1.70196e-09 -7.51096e-10 -1.26901e-09 -9.89832e-10 -7.73091 5.47488 -0.417314 -7.51097e-10 -1.26901e-09 -9.89829e-10 -2.90554 0.965183 -0.102902 -7.51105e-10 -1.26901e-09 -9.89835e-10 -10.2786 0.731801 -0.0259123 -7.51086e-10 -1.26901e-09 -9.8984e-10 -2.22167 -0.733487 0.20892 -2.03217e-16 0.0 -3.88251e-19 -1.09339 -3.86116 0.0319401 -0.0212799 13.1651 0.177133 -1.3644 -6.52154 -7.72449 2.03217e-16 0.0 3.88251e-19 9.86346 -6.37997 -2.21327 0.123338 19.2958 -0.349706 2.45301 -10.4798 7.65379
49.7991 84.6684 -75.0377 -4.1853 -3.9261 1.0919 4.48185 1.26078 1.04816 2.79742 -0.837923 0.447682 -11.689 -2.78909 -4.64394 14.4808 -6.45793 -4.63243 -0.0 0.0 0.0 -0.0 0.0 0.0 1.93621e-13 -6.63399e-15 5.52847e-14 80.9031 22.9865 1.3184 -17.0237 -9.55279 32.0395 -0.146033 -10.7096 -1.52351 -2.01226e-09 2.6842e-09 9.57932e-11 -3.47684e-09 4.63967e-09 1.52526e-10 -2.01226e-09 2.6842e-09 9.57659e-11 7.73091 5.47488 0.417314 -2.01226e-09 2.6842e-09 9.579e-11 2.90554 0.965183 0.102902 -2.01226e-09 2.6842e-09 9.57927e-11 10.2786 0.731801 0.0259123 -2.01227e-09 2.6842e-09 9.58009e-11 2.22167 -0.733487 -0.20892 1.93372e-13 -6.6335e-15 5.49286e-14 -85.2322 16.0267 -1.95574 13.954 -6.84492 -25.5474 0.299412 15.2458 -2.19614 -1.53116e-09 -2.5082e-09 -1.4033e-09 -2.66076e-09 -4.34025e-09 -2.4058e-09 -1.53116e-09 -2.5082e-09 -1.4033e-09 -7.73091 5.47488 -0.417314 -1.53116e-09 -2.50821e-09 -1.4033e-09 -2.90554 0.965183 -0.102902 -1.53117e-09 -2.50821e-09 -1.4033e-09 -10.2786 0.731801 -0.0259123 -1.53115e-09 -2.50821e-09 -1.40331e-09 -2.22167 -0.733487 0.20892 -2.03217e-16 0.0 -3.88251e-19 -0.299746 -3.78334 0.0482905 -0.0188673 12.3453 0.16425 -1.27439 -5.95808 -7.70899 2.03217e-16 0.0 3.88251e-19 10.1885 -6.79026 -2.2117 0.119046 19.1373 -0.344417 2.29775 -10.1683 7.19351
49.8739 84.6208 -74.9888 -3.7432 -3.7599 0.953 4.86805 1.24419 0.957677 2.697 -0.895514 0.422913 -11.396 -2.70696 -4.54759 14.1224 -6.23951 -4.56661 -0.0 0.0 0.0 -0.0 0.0 0.0 2.37064e-13 1.19348e-15 8.44835e-14 78.9083 23.0742 1.12875 -17.214 -9.86593 32.2799 -0.140036 -10.608 -1.50831 -2.4474e-09 3.23583e-09 8.65365e-11 -4.22855e-09 5.59213e-09 1.33619e-10 -2.4474e-09 3.23583e-09 8.65047e-11 7.73091 5.47488 0.417314 -2.4474e-09 3.23583e-09 8.65302e-11 2.90554 0.965183 0.102902 -2.44739e-09 3.23583e-09 8.65326e-11 10.2786 0.731801 0.0259123 -2.4474e-09 3.23583e-09 8.65397e-11 2.22167 -0.733487 -0.20892 2.36755e-13 1.1898e-15 8.40859e-14 -83.2813 16.6055 -1.9249 14.1667 -7.08979 -25.8902 0.261544 14.4073 -2.06905 -1.86718e-09 -3.0099e-09 -1.55935e-09 -3.2422e-09 -5.20643e-09 -2.67071e-09 -1.86718e-09 -3.0099e-09 -1.55935e-09 -7.73091 5.47488 -0.417314 -1.86718e-09 -3.0099e-09 -1.55934e-09 -2.90554 0.965183 -0.102902 -1.86719e-09 -3.0099e-09 -1.55935e-09 -10.2786 0.731801 -0.0259123 -1.86717e-09 -3.0099e-09 -1.55936e-09 -2.22167 -0.733487 0.20892 -2.03217e-16 0.0 -3.88251e-19 0.261989 -3.79422 0.0800316 -0.0176453 11.9217 0.158043 -1.23802 -5.64957 -7.78554 2.03217e-16 0.0 3.88251e-19 10.4656 -7.10947 -2.19556 0.116739 19.0928 -0.341948 2.19182 -10.0026 6.85271
